<svg width="220" height="231" viewBox="0 0 220 231" fill="none" xmlns="http://www.w3.org/2000/svg">
<rect width="220" height="231" fill="#2F2B2B"/>
<path d="M87.6717 102.594L92.4521 100.699C92.744 99.1827 93.9167 97.9687 95.4257 97.5919L95.6843 94.6647C95.7212 94.2472 96.0063 93.8908 96.4106 93.757C96.8149 93.6233 97.2614 93.7373 97.5478 94.048L98.7985 95.4033L99.5657 92.7644C99.6935 92.3249 100.095 92.0164 100.56 92.0005C101.025 91.9863 101.447 92.265 101.606 92.6948L108.226 110.639C112.988 111.854 117.146 114.849 119.7 118.923C122.039 122.655 122.766 126.93 121.746 130.962C121.15 133.318 120.018 134.87 118.86 135.888H119.771C119.78 135.888 119.788 135.888 119.797 135.889C124.104 135.992 128.096 133.586 129.959 129.762C130.215 129.237 130.856 129.016 131.39 129.267C131.925 129.519 132.15 130.148 131.894 130.673C129.712 135.15 125.091 138 120.06 138C119.959 138 99.5778 138 99.5778 138C98.9852 138 98.505 137.528 98.505 136.946C98.505 134.108 100.808 132.815 102.841 132.34C101.891 130.52 101.808 128.918 101.916 127.871L101.636 127.834L95.2059 137.522C95.0078 137.82 94.6699 138 94.3073 138H90.4029C90.0123 138 89.6524 137.791 89.4638 137.455C89.2749 137.119 89.2871 136.709 89.4953 136.384C89.5368 136.319 93.5679 130.03 95.7349 126.509V108.797C95.416 108.833 95.0578 108.851 94.7414 108.851C91.6292 108.851 88.7023 107.126 87.1264 104.067C87.1251 104.065 87.0847 103.982 87.0782 103.966C86.8565 103.426 87.1222 102.812 87.6717 102.594Z" fill="#FCFCFC"/>
</svg>
