<svg width="45" height="46" viewBox="0 0 45 46" fill="none" xmlns="http://www.w3.org/2000/svg">
<path d="M0.671719 10.594L5.45207 8.69896C5.74399 7.18267 6.91667 5.96868 8.42573 5.5919L8.68427 2.66473C8.72122 2.24719 9.00635 1.89078 9.41055 1.75702C9.81488 1.62327 10.2614 1.73735 10.5478 2.04796L11.7985 3.40332L12.5658 0.764399C12.6935 0.32495 13.0951 0.0164453 13.56 0.000516468C14.0246 -0.0136555 14.4472 0.264982 14.6058 0.694827L21.2257 18.6394C25.9877 19.8544 30.1459 22.8486 32.7 26.9229C35.0394 30.6547 35.766 34.9301 34.7461 38.9616C34.1499 41.3177 33.0181 42.8703 31.8604 43.8884H32.7709C32.7795 43.8884 32.7881 43.8885 32.7967 43.8887C37.1039 43.9919 41.0955 41.5857 42.9595 37.7623C43.2154 37.2373 43.8561 37.0157 44.3904 37.267C44.9248 37.5186 45.1505 38.148 44.8944 38.6731C42.7119 43.1503 38.0908 46 33.0596 46C32.9593 46 12.5778 46 12.5778 46C11.9852 46 11.505 45.5281 11.505 44.9459C11.505 42.1084 13.8083 40.8152 15.8411 40.3405C14.8906 38.5196 14.8085 36.9183 14.9162 35.8708L14.6359 35.834L8.20593 45.5217C8.00782 45.82 7.66989 45.9999 7.30729 45.9999H3.40292C3.01231 45.9999 2.65245 45.7912 2.46376 45.4551C2.27494 45.1191 2.2871 44.7087 2.49534 44.3839C2.53682 44.3193 6.56789 38.0303 8.73493 34.5093V16.7973C8.41595 16.8333 8.05776 16.8515 7.74141 16.8515C4.62924 16.8515 1.70231 15.1263 0.126381 12.0672C0.125069 12.0647 0.0846634 11.9818 0.0782242 11.9659C-0.143486 11.4261 0.122211 10.8118 0.671719 10.594Z" fill="#2F2B2B"/>
</svg>
