<svg width="140" height="40" viewBox="0 0 140 40" fill="none" xmlns="http://www.w3.org/2000/svg">
<path d="M37.4328 8.98189L33.396 7.37521C33.1495 6.08966 32.1593 5.06041 30.8849 4.74095L30.6666 2.25923C30.6354 1.90522 30.3946 1.60305 30.0533 1.48965C29.7119 1.37625 29.3348 1.47297 29.0929 1.73631L28.0369 2.88542L27.3889 0.648077C27.281 0.275501 26.9419 0.0139428 26.5493 0.000437875C26.157 -0.0115775 25.8002 0.224659 25.6662 0.589093L20.0761 15.803C16.0549 16.8331 12.5434 19.3716 10.3867 22.8259C8.41117 25.9898 7.79756 29.6147 8.65888 33.0326C9.16227 35.0303 10.118 36.3466 11.0957 37.2097H10.3268C10.3195 37.2097 10.3123 37.2098 10.305 37.21C6.66779 37.2975 3.29709 35.2575 1.72312 32.0159C1.50701 31.5707 0.965977 31.3828 0.514732 31.5959C0.0634874 31.8092 -0.127056 32.3429 0.0891548 32.788C1.93218 36.5839 5.83445 39 10.083 39C10.1677 39 27.3788 39 27.3788 39C27.8791 39 28.2847 38.5999 28.2847 38.1063C28.2847 35.7006 26.3397 34.6042 24.6231 34.2017C25.4257 32.658 25.4951 31.3003 25.4041 30.4122L25.6408 30.381L31.0705 38.5945C31.2378 38.8474 31.5232 38.9999 31.8294 38.9999H35.1264C35.4563 38.9999 35.7602 38.8229 35.9195 38.5381C36.0789 38.2532 36.0687 37.9052 35.8928 37.6299C35.8578 37.575 32.4538 32.2431 30.6238 29.2579V14.2412C30.8932 14.2717 31.1957 14.2871 31.4628 14.2871C34.0909 14.2871 36.5625 12.8244 37.8933 10.2309C37.8944 10.2288 37.9285 10.1585 37.9339 10.145C38.1212 9.68732 37.8968 9.16649 37.4328 8.98189Z" fill="#FCFCFC"/>
<path d="M55.52 23.088H58.208V30.732C57.2373 31.5347 56.108 32.1507 54.82 32.58C53.532 33.0093 52.188 33.224 50.788 33.224C48.8093 33.224 47.0267 32.7947 45.44 31.936C43.8533 31.0587 42.6027 29.864 41.688 28.352C40.792 26.8213 40.344 25.104 40.344 23.2C40.344 21.296 40.792 19.5787 41.688 18.048C42.6027 16.5173 43.8533 15.3227 45.44 14.464C47.0453 13.6053 48.8467 13.176 50.844 13.176C52.412 13.176 53.8307 13.4373 55.1 13.96C56.388 14.464 57.48 15.2107 58.376 16.2L56.64 17.936C55.072 16.424 53.1773 15.668 50.956 15.668C49.4627 15.668 48.1187 15.9947 46.924 16.648C45.748 17.2827 44.824 18.1787 44.152 19.336C43.48 20.4747 43.144 21.7627 43.144 23.2C43.144 24.6187 43.48 25.9067 44.152 27.064C44.824 28.2027 45.748 29.0987 46.924 29.752C48.1187 30.4053 49.4533 30.732 50.928 30.732C52.6827 30.732 54.2133 30.312 55.52 29.472V23.088ZM76.5889 25.664C76.5889 25.8693 76.5702 26.14 76.5329 26.476H64.4929C64.6609 27.7827 65.2302 28.8373 66.2009 29.64C67.1902 30.424 68.4129 30.816 69.8689 30.816C71.6422 30.816 73.0702 30.2187 74.1529 29.024L75.6369 30.76C74.9649 31.544 74.1249 32.1413 73.1169 32.552C72.1276 32.9627 71.0169 33.168 69.7849 33.168C68.2169 33.168 66.8262 32.8507 65.6129 32.216C64.3996 31.5627 63.4569 30.6573 62.7849 29.5C62.1316 28.3427 61.8049 27.036 61.8049 25.58C61.8049 24.1427 62.1222 22.8453 62.7569 21.688C63.4102 20.5307 64.2969 19.6347 65.4169 19C66.5556 18.3467 67.8342 18.02 69.2529 18.02C70.6716 18.02 71.9316 18.3467 73.0329 19C74.1529 19.6347 75.0209 20.5307 75.6369 21.688C76.2716 22.8453 76.5889 24.1707 76.5889 25.664ZM69.2529 20.288C67.9649 20.288 66.8822 20.68 66.0049 21.464C65.1462 22.248 64.6422 23.2747 64.4929 24.544H74.0129C73.8636 23.2933 73.3502 22.276 72.4729 21.492C71.6142 20.6893 70.5409 20.288 69.2529 20.288ZM88.6654 32.132C88.2734 32.468 87.7881 32.7293 87.2094 32.916C86.6308 33.084 86.0334 33.168 85.4174 33.168C83.9241 33.168 82.7668 32.7667 81.9454 31.964C81.1241 31.1613 80.7134 30.0133 80.7134 28.52V20.372H78.1934V18.16H80.7134V14.912H83.4014V18.16H87.6574V20.372H83.4014V28.408C83.4014 29.2107 83.5974 29.8267 83.9894 30.256C84.4001 30.6853 84.9788 30.9 85.7254 30.9C86.5468 30.9 87.2468 30.6667 87.8254 30.2L88.6654 32.132ZM99.9512 13.4C102.49 13.4 104.487 14.0067 105.943 15.22C107.399 16.4333 108.127 18.104 108.127 20.232C108.127 22.36 107.399 24.0307 105.943 25.244C104.487 26.4573 102.49 27.064 99.9512 27.064H95.1072V33H92.3072V13.4H99.9512ZM99.8672 24.628C101.641 24.628 102.994 24.2547 103.927 23.508C104.861 22.7427 105.327 21.6507 105.327 20.232C105.327 18.8133 104.861 17.7307 103.927 16.984C102.994 16.2187 101.641 15.836 99.8672 15.836H95.1072V24.628H99.8672ZM125.206 25.664C125.206 25.8693 125.187 26.14 125.15 26.476H113.11C113.278 27.7827 113.847 28.8373 114.818 29.64C115.807 30.424 117.03 30.816 118.486 30.816C120.259 30.816 121.687 30.2187 122.77 29.024L124.254 30.76C123.582 31.544 122.742 32.1413 121.734 32.552C120.745 32.9627 119.634 33.168 118.402 33.168C116.834 33.168 115.443 32.8507 114.23 32.216C113.017 31.5627 112.074 30.6573 111.402 29.5C110.749 28.3427 110.422 27.036 110.422 25.58C110.422 24.1427 110.739 22.8453 111.374 21.688C112.027 20.5307 112.914 19.6347 114.034 19C115.173 18.3467 116.451 18.02 117.87 18.02C119.289 18.02 120.549 18.3467 121.65 19C122.77 19.6347 123.638 20.5307 124.254 21.688C124.889 22.8453 125.206 24.1707 125.206 25.664ZM117.87 20.288C116.582 20.288 115.499 20.68 114.622 21.464C113.763 22.248 113.259 23.2747 113.11 24.544H122.63C122.481 23.2933 121.967 22.276 121.09 21.492C120.231 20.6893 119.158 20.288 117.87 20.288ZM137.283 32.132C136.891 32.468 136.405 32.7293 135.827 32.916C135.248 33.084 134.651 33.168 134.035 33.168C132.541 33.168 131.384 32.7667 130.563 31.964C129.741 31.1613 129.331 30.0133 129.331 28.52V20.372H126.811V18.16H129.331V14.912H132.019V18.16H136.275V20.372H132.019V28.408C132.019 29.2107 132.215 29.8267 132.607 30.256C133.017 30.6853 133.596 30.9 134.343 30.9C135.164 30.9 135.864 30.6667 136.443 30.2L137.283 32.132Z" fill="#FCFCFC"/>
<path d="M87.8051 18.6963C88.1278 18.3992 88.3299 17.9741 88.3299 17.5005C88.3299 16.6028 87.6022 15.8806 86.7045 15.8806C85.995 15.8806 85.3926 16.8551 85.1704 17.5033L79.0244 17.5005C78.8022 16.8524 78.1998 15.8815 77.4904 15.8815C76.5935 15.8806 75.8649 16.6055 75.8649 17.5033C75.8649 17.9768 76.067 18.4001 76.3897 18.6972C76.067 18.9943 75.8649 19.4194 75.8658 19.892C75.8658 20.7898 76.5935 21.512 77.4913 21.512C78.2007 21.512 78.8022 21.0677 79.0244 20.4195L85.1695 20.4195C85.3917 21.0677 85.9941 21.5111 86.7036 21.5111C87.6013 21.5111 88.3299 20.7861 88.3299 19.8884C88.329 19.4158 88.1278 18.9934 87.8051 18.6963Z" fill="#FCFCFC"/>
<path d="M136.805 18.6963C137.128 18.3992 137.33 17.9741 137.33 17.5005C137.33 16.6028 136.602 15.8806 135.704 15.8806C134.995 15.8806 134.393 16.8551 134.17 17.5033L128.024 17.5005C127.802 16.8524 127.2 15.8815 126.49 15.8815C125.594 15.8806 124.865 16.6055 124.865 17.5033C124.865 17.9768 125.067 18.4001 125.39 18.6972C125.067 18.9943 124.865 19.4194 124.866 19.892C124.866 20.7898 125.594 21.512 126.491 21.512C127.201 21.512 127.802 21.0677 128.024 20.4195L134.17 20.4195C134.392 21.0677 134.994 21.5111 135.704 21.5111C136.601 21.5111 137.33 20.7861 137.33 19.8884C137.329 19.4158 137.128 18.9934 136.805 18.6963Z" fill="#FCFCFC"/>
</svg>
