<svg width="140" height="41" viewBox="0 0 140 41" fill="none" xmlns="http://www.w3.org/2000/svg">
<path d="M37.4328 9.48192L33.396 7.87524C33.1495 6.58969 32.1593 5.56044 30.8849 5.24099L30.6666 2.75926C30.6354 2.40525 30.3946 2.10308 30.0533 1.98968C29.7119 1.87628 29.3348 1.973 29.0929 2.23634L28.0369 3.38545L27.3889 1.14811C27.281 0.775531 26.9419 0.513973 26.5493 0.500468C26.157 0.488453 25.8002 0.724689 25.6662 1.08912L20.0761 16.303C16.0549 17.3331 12.5434 19.8717 10.3867 23.3259C8.41117 26.4898 7.79756 30.1147 8.65888 33.5327C9.16227 35.5303 10.118 36.8466 11.0957 37.7097H10.3268C10.3195 37.7097 10.3123 37.7098 10.305 37.71C6.66779 37.7975 3.29709 35.7575 1.72312 32.5159C1.50701 32.0708 0.965977 31.8829 0.514732 32.096C0.0634874 32.3093 -0.127056 32.8429 0.0891548 33.2881C1.93218 37.0839 5.83445 39.5 10.083 39.5C10.1677 39.5 27.3788 39.5 27.3788 39.5C27.8791 39.5 28.2847 39.0999 28.2847 38.6063C28.2847 36.2007 26.3397 35.1042 24.6231 34.7017C25.4257 33.158 25.4951 31.8004 25.4041 30.9122L25.6408 30.881L31.0705 39.0945C31.2378 39.3474 31.5232 39.4999 31.8294 39.4999H35.1264C35.4563 39.4999 35.7602 39.323 35.9195 39.0381C36.0789 38.7532 36.0687 38.4052 35.8928 38.1299C35.8578 38.0751 32.4538 32.7431 30.6238 29.7579V14.7412C30.8932 14.7718 31.1957 14.7872 31.4628 14.7872C34.0909 14.7872 36.5625 13.3245 37.8933 10.7309C37.8944 10.7288 37.9285 10.6585 37.9339 10.645C38.1212 10.1874 37.8968 9.66652 37.4328 9.48192Z" fill="#2F2B2B"/>
<path d="M55.52 23.588H58.208V31.232C57.2373 32.0347 56.108 32.6507 54.82 33.08C53.532 33.5093 52.188 33.724 50.788 33.724C48.8093 33.724 47.0267 33.2947 45.44 32.436C43.8533 31.5587 42.6027 30.364 41.688 28.852C40.792 27.3213 40.344 25.604 40.344 23.7C40.344 21.796 40.792 20.0787 41.688 18.548C42.6027 17.0173 43.8533 15.8227 45.44 14.964C47.0453 14.1053 48.8467 13.676 50.844 13.676C52.412 13.676 53.8307 13.9373 55.1 14.46C56.388 14.964 57.48 15.7107 58.376 16.7L56.64 18.436C55.072 16.924 53.1773 16.168 50.956 16.168C49.4627 16.168 48.1187 16.4947 46.924 17.148C45.748 17.7827 44.824 18.6787 44.152 19.836C43.48 20.9747 43.144 22.2627 43.144 23.7C43.144 25.1187 43.48 26.4067 44.152 27.564C44.824 28.7027 45.748 29.5987 46.924 30.252C48.1187 30.9053 49.4533 31.232 50.928 31.232C52.6827 31.232 54.2133 30.812 55.52 29.972V23.588ZM76.5889 26.164C76.5889 26.3693 76.5702 26.64 76.5329 26.976H64.4929C64.6609 28.2827 65.2302 29.3373 66.2009 30.14C67.1902 30.924 68.4129 31.316 69.8689 31.316C71.6422 31.316 73.0702 30.7187 74.1529 29.524L75.6369 31.26C74.9649 32.044 74.1249 32.6413 73.1169 33.052C72.1276 33.4627 71.0169 33.668 69.7849 33.668C68.2169 33.668 66.8262 33.3507 65.6129 32.716C64.3996 32.0627 63.4569 31.1573 62.7849 30C62.1316 28.8427 61.8049 27.536 61.8049 26.08C61.8049 24.6427 62.1222 23.3453 62.7569 22.188C63.4102 21.0307 64.2969 20.1347 65.4169 19.5C66.5556 18.8467 67.8342 18.52 69.2529 18.52C70.6716 18.52 71.9316 18.8467 73.0329 19.5C74.1529 20.1347 75.0209 21.0307 75.6369 22.188C76.2716 23.3453 76.5889 24.6707 76.5889 26.164ZM69.2529 20.788C67.9649 20.788 66.8822 21.18 66.0049 21.964C65.1462 22.748 64.6422 23.7747 64.4929 25.044H74.0129C73.8636 23.7933 73.3502 22.776 72.4729 21.992C71.6142 21.1893 70.5409 20.788 69.2529 20.788ZM88.6654 32.632C88.2734 32.968 87.7881 33.2293 87.2094 33.416C86.6308 33.584 86.0334 33.668 85.4174 33.668C83.9241 33.668 82.7668 33.2667 81.9454 32.464C81.1241 31.6613 80.7134 30.5133 80.7134 29.02V20.872H78.1934V18.66H80.7134V15.412H83.4014V18.66H87.6574V20.872H83.4014V28.908C83.4014 29.7107 83.5974 30.3267 83.9894 30.756C84.4001 31.1853 84.9788 31.4 85.7254 31.4C86.5468 31.4 87.2468 31.1667 87.8254 30.7L88.6654 32.632ZM99.9512 13.9C102.49 13.9 104.487 14.5067 105.943 15.72C107.399 16.9333 108.127 18.604 108.127 20.732C108.127 22.86 107.399 24.5307 105.943 25.744C104.487 26.9573 102.49 27.564 99.9512 27.564H95.1072V33.5H92.3072V13.9H99.9512ZM99.8672 25.128C101.641 25.128 102.994 24.7547 103.927 24.008C104.861 23.2427 105.327 22.1507 105.327 20.732C105.327 19.3133 104.861 18.2307 103.927 17.484C102.994 16.7187 101.641 16.336 99.8672 16.336H95.1072V25.128H99.8672ZM125.206 26.164C125.206 26.3693 125.187 26.64 125.15 26.976H113.11C113.278 28.2827 113.847 29.3373 114.818 30.14C115.807 30.924 117.03 31.316 118.486 31.316C120.259 31.316 121.687 30.7187 122.77 29.524L124.254 31.26C123.582 32.044 122.742 32.6413 121.734 33.052C120.745 33.4627 119.634 33.668 118.402 33.668C116.834 33.668 115.443 33.3507 114.23 32.716C113.017 32.0627 112.074 31.1573 111.402 30C110.749 28.8427 110.422 27.536 110.422 26.08C110.422 24.6427 110.739 23.3453 111.374 22.188C112.027 21.0307 112.914 20.1347 114.034 19.5C115.173 18.8467 116.451 18.52 117.87 18.52C119.289 18.52 120.549 18.8467 121.65 19.5C122.77 20.1347 123.638 21.0307 124.254 22.188C124.889 23.3453 125.206 24.6707 125.206 26.164ZM117.87 20.788C116.582 20.788 115.499 21.18 114.622 21.964C113.763 22.748 113.259 23.7747 113.11 25.044H122.63C122.481 23.7933 121.967 22.776 121.09 21.992C120.231 21.1893 119.158 20.788 117.87 20.788ZM137.283 32.632C136.891 32.968 136.405 33.2293 135.827 33.416C135.248 33.584 134.651 33.668 134.035 33.668C132.541 33.668 131.384 33.2667 130.563 32.464C129.741 31.6613 129.331 30.5133 129.331 29.02V20.872H126.811V18.66H129.331V15.412H132.019V18.66H136.275V20.872H132.019V28.908C132.019 29.7107 132.215 30.3267 132.607 30.756C133.017 31.1853 133.596 31.4 134.343 31.4C135.164 31.4 135.864 31.1667 136.443 30.7L137.283 32.632Z" fill="#2F2B2B"/>
<path d="M87.8051 19.1962C88.1278 18.8991 88.3299 18.474 88.3299 18.0004C88.3299 17.1027 87.6022 16.3805 86.7045 16.3805C85.995 16.3805 85.3926 17.355 85.1704 18.0032L79.0244 18.0004C78.8022 17.3523 78.1998 16.3814 77.4904 16.3814C76.5935 16.3805 75.8649 17.1055 75.8649 18.0032C75.8649 18.4767 76.067 18.9 76.3897 19.1971C76.067 19.4942 75.8649 19.9193 75.8658 20.392C75.8658 21.2897 76.5935 22.0119 77.4913 22.0119C78.2007 22.0119 78.8022 21.5676 79.0244 20.9195L85.1695 20.9195C85.3917 21.5676 85.9941 22.011 86.7036 22.011C87.6013 22.011 88.3299 21.286 88.3299 20.3883C88.329 19.9157 88.1278 19.4933 87.8051 19.1962Z" fill="#2F2B2B"/>
<path d="M136.805 19.1962C137.128 18.8991 137.33 18.474 137.33 18.0004C137.33 17.1027 136.602 16.3805 135.704 16.3805C134.995 16.3805 134.393 17.355 134.17 18.0032L128.024 18.0004C127.802 17.3523 127.2 16.3814 126.49 16.3814C125.594 16.3805 124.865 17.1055 124.865 18.0032C124.865 18.4767 125.067 18.9 125.39 19.1971C125.067 19.4942 124.865 19.9193 124.866 20.392C124.866 21.2897 125.594 22.0119 126.491 22.0119C127.201 22.0119 127.802 21.5676 128.024 20.9195L134.17 20.9195C134.392 21.5676 134.994 22.011 135.704 22.011C136.601 22.011 137.33 21.286 137.33 20.3883C137.329 19.9157 137.128 19.4933 136.805 19.1962Z" fill="#2F2B2B"/>
</svg>
